# xmcd
#
# Track frame offsets:
#	150
#	11365
#	19262
#	33278
#	48058
#	59210
#	69345
#	80448
#	91788
#	106315
#	120588
#	142860
#	152768
#	163678
#	168368
#	183360
#
# Disc length: 2498 seconds
# Revision: 35
# Processed by: cddbd v1.5.2PL0 Copyright (c) Steve Scherf et al.
# Submitted via: dBpowerAMP V12.0
#
DISCID=bf09c010
DTITLE=Various / Pulp Fiction
DYEAR=1994
DGENRE=Soundtrack
TTITLE0=Tim Roth / Pumpkin and Honey Bunny ( Misirlou)
TTITLE1=Samuel L. Jackson / Royale With Cheese
TTITLE2=Kool & the Gang / Jungle Boogie
TTITLE3=Al Green / Let's Stay Together
TTITLE4=Tornadoes, The / Bustin' Surfboards
TTITLE5=Ricky Nelson / Lonesome Town
TTITLE6=Dusty Springfield / Son of a Preacher Man
TTITLE7=Centurians, The / Zed's Dead, Baby (Bullwinkle Part II)
TTITLE8=Jerome Patrick Hoban / Jack Rabbit Slims Twist Contest (You Never Can Tell)
TTITLE9=Urge Overkill / Girl, You'll Be a Woman Soon
TTITLE10=Maria McKee / If Love Is a Red Dress (Hang Me in Rags)
TTITLE11=Revels, The / Bring Out The Gimp (Comanche)
TTITLE12=Statler Brothers, The / Flowers on the Wall
TTITLE13=Samuel L. Jackson / Personality Goes a Long Way
TTITLE14=Lively Ones, The / Surf Rider
TTITLE15=Samuel L. Jackson / Ezekiel 25:17
EXTD=
EXTT0=
EXTT1=
EXTT2=
EXTT3=
EXTT4=
EXTT5=
EXTT6=
EXTT7=
EXTT8=
EXTT9=
EXTT10=
EXTT11=
EXTT12=
EXTT13=
EXTT14=
EXTT15=
PLAYORDER=
.
